<?xml version="1.0" standalone="no"?>
<!DOCTYPE svg PUBLIC "-//W3C//DTD SVG 20010904//EN"
 "http://www.w3.org/TR/2001/REC-SVG-20010904/DTD/svg10.dtd">
<svg version="1.0" xmlns="http://www.w3.org/2000/svg"
 width="1080.000000pt" height="1080.000000pt" viewBox="0 0 1080.000000 1080.000000"
 preserveAspectRatio="xMidYMid meet">

<g transform="translate(0.000000,1080.000000) scale(0.100000,-0.100000)"
fill="#000000" stroke="none">
<path d="M0 5400 l0 -5400 5400 0 5400 0 0 5400 0 5400 -5400 0 -5400 0 0
-5400z m2482 2673 c25 -43 163 -283 308 -533 145 -250 379 -655 520 -900 730
-1267 895 -1549 901 -1542 8 8 79 129 339 582 105 184 193 336 195 338 1 2 24
-34 50 -80 66 -116 216 -375 362 -625 68 -116 123 -218 123 -225 0 -8 -55
-108 -121 -223 -67 -116 -180 -311 -251 -435 -72 -124 -137 -235 -147 -248
l-16 -23 -540 0 -540 1 -16 22 c-9 13 -93 156 -186 318 -94 162 -279 484 -413
715 -212 368 -1080 1871 -1348 2335 -52 91 -151 261 -219 378 -67 117 -123
215 -123 217 0 3 243 5 539 5 l539 0 44 -77z m2306 -10 c27 -49 101 -176 163
-283 62 -107 158 -274 214 -370 56 -96 195 -335 308 -531 114 -197 207 -359
207 -360 0 -2 -242 -3 -537 -1 -408 2 -541 6 -549 15 -6 7 -141 237 -299 512
-159 275 -366 634 -462 799 -95 164 -173 300 -173 302 0 2 242 4 539 4 l539 0
50 -87z m4562 82 c0 -4 -271 -475 -635 -1105 -104 -179 -206 -356 -228 -395
-54 -95 -99 -148 -160 -188 -99 -66 -110 -67 -610 -67 -414 0 -449 1 -443 17
4 9 82 147 175 307 93 160 230 399 306 531 76 132 192 335 260 450 67 116 153
265 191 332 l69 122 538 1 c295 0 537 -2 537 -5z m-1563 -2708 c-3 -8 -95
-169 -204 -358 -110 -189 -254 -438 -321 -554 -66 -115 -127 -219 -135 -229
-16 -22 17 -74 -331 527 -114 197 -209 364 -212 371 -4 11 63 139 122 234 l14
22 536 0 c445 0 535 -2 531 -13z m-6006 -1969 c26 -11 59 -33 75 -49 l28 -30
-47 -47 c-46 -46 -47 -46 -62 -26 -19 28 -75 54 -115 54 -69 0 -132 -59 -149
-139 -26 -122 45 -231 149 -231 54 0 105 31 119 72 6 17 11 33 11 34 0 2 -31
4 -70 4 l-70 0 0 55 0 55 140 0 140 0 0 -72 c-1 -118 -45 -193 -145 -246 -43
-23 -62 -27 -135 -27 -99 0 -140 17 -206 87 -51 53 -68 86 -83 160 -21 100 8
205 79 281 86 94 216 119 341 65z m986 0 c29 -11 53 -24 53 -29 0 -5 -11 -32
-25 -59 l-25 -50 -30 15 c-42 22 -113 30 -139 15 -17 -8 -21 -19 -19 -42 3
-28 12 -35 96 -78 51 -26 102 -56 113 -66 82 -74 60 -217 -41 -274 -39 -22
-57 -25 -140 -25 -87 1 -100 3 -157 33 -35 18 -63 35 -63 38 0 8 60 114 64
114 2 0 27 -13 57 -30 87 -48 179 -35 179 26 0 18 -12 32 -47 54 -26 17 -50
30 -55 30 -4 0 -29 13 -56 30 -112 68 -123 199 -24 280 64 53 151 59 259 18z
m983 -1 c54 -26 119 -89 143 -139 42 -88 42 -209 1 -290 -48 -97 -162 -168
-268 -168 -93 0 -154 25 -217 89 -66 67 -89 125 -89 221 0 88 22 149 77 210
94 105 231 135 353 77z m-1415 -42 l0 -60 -102 -3 -103 -3 0 -59 0 -60 100 0
100 0 0 -60 0 -60 -100 0 -100 0 0 -60 0 -60 105 0 105 0 0 -60 0 -60 -175 0
-175 0 0 305 0 305 173 -2 172 -3 0 -60z m955 0 l0 -65 -70 0 -70 0 0 -240 0
-240 -70 0 -70 0 0 240 0 240 -70 0 -70 0 0 65 0 65 210 0 210 0 0 -65z m1017
37 c78 -41 110 -122 83 -217 -12 -42 -44 -80 -93 -110 -14 -9 -3 -27 79 -125
53 -63 98 -118 100 -122 3 -5 -34 -8 -83 -7 l-88 0 -83 110 c-46 60 -86 109
-91 109 -4 0 -6 -49 -3 -110 l4 -110 -71 0 -71 0 0 306 0 307 138 -5 c115 -4
144 -8 179 -26z m705 -4 c108 -50 168 -136 176 -254 8 -128 -50 -234 -162
-292 -46 -24 -63 -27 -183 -30 l-133 -4 0 299 c0 165 3 303 8 307 4 5 59 6
123 4 96 -4 125 -9 171 -30z m588 -33 l0 -65 -105 0 -106 0 3 -57 3 -58 98 -3
97 -3 0 -59 0 -60 -100 0 -100 0 0 -60 0 -60 105 0 105 0 0 -60 0 -60 -175 0
-175 0 0 298 c0 164 3 302 7 305 3 4 82 7 175 7 l168 0 0 -65z"/>
<path d="M3543 3340 c-45 -27 -73 -87 -73 -154 0 -116 55 -180 155 -180 94 0
149 66 148 180 -1 69 -18 110 -63 148 -40 33 -118 36 -167 6z"/>
<path d="M4130 3318 c0 -29 -3 -63 -6 -75 -6 -21 -3 -23 40 -23 58 0 86 25 86
75 0 48 -29 75 -80 75 l-40 0 0 -52z"/>
<path d="M4850 3181 c0 -199 -4 -189 65 -170 76 21 125 88 125 174 0 91 -61
163 -146 173 l-44 5 0 -182z"/>
</g>
</svg>
